<svg width="42" height="42" viewBox="0 0 42 42" fill="none" xmlns="http://www.w3.org/2000/svg">
<path d="M0 3.9375C0 3.5894 0.138281 3.25556 0.384422 3.00942C0.630564 2.76328 0.964403 2.625 1.3125 2.625H5.25C5.54277 2.62508 5.82711 2.72305 6.0578 2.90331C6.28848 3.08358 6.45228 3.33581 6.52313 3.61987L7.58625 7.875H38.0625C38.2552 7.87518 38.4455 7.91779 38.6199 7.99982C38.7943 8.08185 38.9485 8.20127 39.0715 8.34961C39.1946 8.49795 39.2834 8.67156 39.3318 8.85811C39.3801 9.04466 39.3868 9.23957 39.3514 9.429L35.4139 30.429C35.3576 30.7298 35.198 31.0014 34.9626 31.197C34.7273 31.3925 34.431 31.4997 34.125 31.5H10.5C10.194 31.4997 9.89773 31.3925 9.66239 31.197C9.42705 31.0014 9.26743 30.7298 9.21113 30.429L5.27625 9.46838L4.22625 5.25H1.3125C0.964403 5.25 0.630564 5.11172 0.384422 4.86558C0.138281 4.61944 0 4.2856 0 3.9375ZM8.14275 10.5L11.5894 28.875H33.0356L36.4823 10.5H8.14275ZM13.125 31.5C11.7326 31.5 10.3973 32.0531 9.41269 33.0377C8.42812 34.0223 7.875 35.3576 7.875 36.75C7.875 38.1424 8.42812 39.4777 9.41269 40.4623C10.3973 41.4469 11.7326 42 13.125 42C14.5174 42 15.8527 41.4469 16.8373 40.4623C17.8219 39.4777 18.375 38.1424 18.375 36.75C18.375 35.3576 17.8219 34.0223 16.8373 33.0377C15.8527 32.0531 14.5174 31.5 13.125 31.5ZM31.5 31.5C30.1076 31.5 28.7723 32.0531 27.7877 33.0377C26.8031 34.0223 26.25 35.3576 26.25 36.75C26.25 38.1424 26.8031 39.4777 27.7877 40.4623C28.7723 41.4469 30.1076 42 31.5 42C32.8924 42 34.2277 41.4469 35.2123 40.4623C36.1969 39.4777 36.75 38.1424 36.75 36.75C36.75 35.3576 36.1969 34.0223 35.2123 33.0377C34.2277 32.0531 32.8924 31.5 31.5 31.5ZM13.125 34.125C13.8212 34.125 14.4889 34.4016 14.9812 34.8938C15.4734 35.3861 15.75 36.0538 15.75 36.75C15.75 37.4462 15.4734 38.1139 14.9812 38.6062C14.4889 39.0984 13.8212 39.375 13.125 39.375C12.4288 39.375 11.7611 39.0984 11.2688 38.6062C10.7766 38.1139 10.5 37.4462 10.5 36.75C10.5 36.0538 10.7766 35.3861 11.2688 34.8938C11.7611 34.4016 12.4288 34.125 13.125 34.125ZM31.5 34.125C32.1962 34.125 32.8639 34.4016 33.3562 34.8938C33.8484 35.3861 34.125 36.0538 34.125 36.75C34.125 37.4462 33.8484 38.1139 33.3562 38.6062C32.8639 39.0984 32.1962 39.375 31.5 39.375C30.8038 39.375 30.1361 39.0984 29.6438 38.6062C29.1516 38.1139 28.875 37.4462 28.875 36.75C28.875 36.0538 29.1516 35.3861 29.6438 34.8938C30.1361 34.4016 30.8038 34.125 31.5 34.125Z" fill="#1E1E1E"/>
</svg>
